<?xml version="1.0" encoding="UTF-8" standalone="no"?>
<!-- Created with Inkscape (http://www.inkscape.org/) -->

<svg
   width="512"
   height="600"
   viewBox="0 0 135.46666 203.2"
   version="1.1"
   id="svg5"
   inkscape:version="1.1.2 (0a00cf5, 2022-02-04)"
   sodipodi:docname="Rocket.svg"
   xmlns:inkscape="http://www.inkscape.org/namespaces/inkscape"
   xmlns:sodipodi="http://sodipodi.sourceforge.net/DTD/sodipodi-0.dtd"
   xmlns="http://www.w3.org/2000/svg"
   xmlns:svg="http://www.w3.org/2000/svg">
  <sodipodi:namedview
     id="namedview7"
     pagecolor="#505050"
     bordercolor="#eeeeee"
     borderopacity="1"
     inkscape:pageshadow="0"
     inkscape:pageopacity="0"
     inkscape:pagecheckerboard="0"
     inkscape:document-units="px"
     showgrid="false"
     units="px"
     width="512px"
     height="756px"
     showguides="false"
     inkscape:object-nodes="false"
     inkscape:snap-smooth-nodes="false"
     inkscape:snap-intersection-paths="false"
     inkscape:object-paths="false"
     inkscape:snap-nodes="true"
     inkscape:zoom="0.60221134"
     inkscape:cx="251.57281"
     inkscape:cy="424.26966"
     inkscape:window-width="1366"
     inkscape:window-height="731"
     inkscape:window-x="0"
     inkscape:window-y="0"
     inkscape:window-maximized="1"
     inkscape:current-layer="layer4" />
  <defs
     id="defs2">
    <inkscape:path-effect
       effect="fillet_chamfer"
       id="path-effect9192"
       is_visible="true"
       lpeversion="1"
       satellites_param="F,1,0,1,0,0,0,1 @ F,1,0,1,0,0,0,1 @ F,1,0,1,0,0,0,1 @ F,1,0,1,0,0,0,1 @ F,1,0,1,0,0,0,1 @ F,1,0,1,0,0,0,1 @ F,1,0,1,0,0.48145649,0,1 @ F,1,0,1,0,0.2050895,0,1 @ F,1,0,1,0,0,0,1 @ F,1,0,1,0,0,0,1 @ F,1,0,1,0,0,0,1 @ F,1,0,1,0,0,0,1 @ F,1,0,1,0,0,0,1 @ F,1,0,1,0,0,0,1 @ F,1,0,1,0,0,0,1 @ F,1,0,1,0,0,0,1 @ F,1,0,1,0,0,0,1 @ F,1,0,1,0,0,0,1 @ F,1,0,1,0,0.53412248,0,1 @ F,1,0,1,0,1,0,1 @ F,1,0,1,0,0,0,1 @ F,1,0,1,0,0,0,1 @ F,1,0,1,0,0,0,1 @ F,1,0,1,0,0,0,1 | F,1,0,1,0,0.56253784,0,1 @ F,1,0,1,0,0.18751688,0,1 @ F,1,0,1,0,0,0,1 @ F,1,0,1,0,0,0,1 @ F,1,0,1,0,0,0,1 @ F,1,0,1,0,0.60337529,0,1 @ F,1,0,1,0,1.2855185,0,1 @ F,1,0,1,0,0,0,1 @ F,1,0,1,0,0,0,1 @ F,1,0,1,0,0,0,1 | F,1,0,1,0,0.5669881,0,1 @ F,1,0,1,0,0,0,1 @ F,1,0,1,0,0,0,1 @ F,1,0,1,0,0.52091392,0,1 @ F,1,0,1,0,0.12656109,0,1 @ F,1,0,1,0,0,0,1 @ F,1,0,1,0,0,0,1 @ F,1,0,1,0,0.51426354,0,1 | F,1,0,1,0,0.56591427,0,1 @ F,1,0,1,0,0.18231617,0,1 @ F,1,0,1,0,0,0,1 @ F,1,0,1,0,0,0,1 @ F,1,0,1,0,0.53547595,0,1 @ F,1,0,1,0,0.25454968,0,1 @ F,1,0,1,0,0,0,1 @ F,1,0,1,0,0,0,1 | F,1,0,1,0,0.10836424,0,1 @ F,1,0,1,0,0,0,1 @ F,1,0,1,0,0,0,1 @ F,1,0,1,0,0.4241916,0,1 @ F,1,0,1,0,0.79140144,0,1 @ F,1,0,1,0,0,0,1 @ F,1,0,1,0,0,0,1 @ F,1,0,1,0,0,0,1 @ F,1,0,1,0,0.51457386,0,1 | F,1,0,1,0,0.52803668,0,1 @ F,1,0,1,0,1,0,1 @ F,1,0,1,0,0,0,1 @ F,1,0,1,0,0,0,1 @ F,1,0,1,0,0.65623906,0,1 @ F,1,0,1,0,0.10251918,0,1 @ F,1,0,1,0,0,0,1"
       unit="px"
       method="auto"
       mode="F"
       radius="0"
       chamfer_steps="1"
       flexible="true"
       use_knot_distance="true"
       apply_no_radius="true"
       apply_with_radius="true"
       only_selected="false"
       hide_knots="false" />
    <inkscape:path-effect
       effect="dashed_stroke"
       id="path-effect487"
       is_visible="false"
       lpeversion="1"
       numberdashes="3"
       holefactor="0"
       splitsegments="true"
       halfextreme="true"
       unifysegment="true"
       message="Añadir &lt;b&gt;«Rellenar entre muchos efectos»&lt;/b&gt; para añadir relleno." />
  </defs>
  <g
     inkscape:groupmode="layer"
     id="layer3"
     inkscape:label="planet"
     style="display:inline">
    <path
       id="path4790"
       style="display:inline;fill:#ffffff;stroke-width:1.32545"
       d="m 256,649.06055 c -8.7279,-7e-5 -17.45275,0.32633 -26.15625,0.97851 -8.70279,0.65262 -17.37812,1.63052 -26.00781,2.93164 -8.63058,1.3005 -17.20949,2.92338 -25.71875,4.86524 -8.50858,1.94183 -16.94156,4.20122 -25.28125,6.77344 -8.33993,2.57248 -16.58071,5.456 -24.70508,8.64453 -2.95717,1.16608 -5.89829,2.37238 -8.82253,3.61855 -1.23354,0.52568 -1.94898,2.00956 -1.60206,3.30479 l 0.0117,0.0438 c 0.36717,1.37081 1.71909,2.02161 3.02427,1.46446 3.05322,-1.30336 6.12512,-2.56259 9.21476,-3.77731 8.00813,-3.14245 16.13099,-5.98428 24.35156,-8.51953 8.22113,-2.53587 16.53423,-4.76334 24.92188,-6.67773 8.38711,-1.91446 16.84289,-3.51453 25.34961,-4.79688 8.50722,-1.28223 17.05942,-2.24579 25.63867,-2.88867 8.57871,-0.64294 17.17848,-0.96477 25.78125,-0.96484 8.60277,7e-5 17.20254,0.3219 25.78125,0.96484 8.57925,0.64288 17.13145,1.60644 25.63867,2.88867 8.50672,1.28235 16.9625,2.88242 25.34961,4.79688 8.38765,1.91439 16.70075,4.14186 24.92188,6.67773 1.40515,0.45624 2.85067,-0.32097 3.23266,-1.74809 0.33318,-1.24479 -0.45328,-2.60652 -1.76001,-3.0312 -8.33969,-2.57222 -16.77267,-4.83161 -25.28125,-6.77344 -8.50926,-1.94186 -17.08817,-3.56474 -25.71875,-4.86524 -8.62969,-1.30112 -17.30502,-2.27902 -26.00781,-2.93164 -8.7035,-0.65218 -17.42835,-0.97858 -26.15625,-0.97851 z m 114.06453,22.09539 c -0.31286,1.1684 0.49448,2.48346 1.79949,2.94791 3.41269,1.21458 6.8061,2.48285 10.17895,3.80435 8.00805,3.14343 15.89573,6.58529 23.64648,10.31836 7.75116,3.73242 15.35999,7.75346 22.81055,12.05469 1.40049,0.83539 2.89283,0.16588 3.34126,-1.50876 0.29478,-1.10083 -0.0808,-2.3657 -0.84126,-2.82132 -7.55835,-4.36392 -15.27729,-8.44359 -23.14062,-12.23047 -7.86345,-3.78683 -15.86579,-7.2782 -23.99024,-10.46679 -3.45209,-1.35069 -6.92536,-2.64643 -10.4185,-3.88673 -1.46571,-0.52043 -2.9838,0.28633 -3.38611,1.78876 z M 105.84792,682.9307 c -0.56981,0.2618 -1.13891,0.52514 -1.7073,0.79 -7.863333,3.78688 -15.582269,7.86655 -23.14062,12.23047 -4.598992,2.67511 -9.136286,5.45468 -13.608353,8.33653 -1.272313,0.81989 -1.980407,2.67879 -1.588762,4.14085 0.360202,1.34469 1.599825,1.80635 2.7751,1.04084 4.895292,-3.18849 9.870898,-6.2522 14.922015,-9.18814 7.450558,-4.30123 15.059394,-8.32227 22.81055,-12.05469 0.23988,-0.11145 0.47988,-0.22262 0.72002,-0.33352 1.30762,-0.60387 2.06958,-2.21228 1.6968,-3.60353 l 0,0 c -0.3521,-1.31408 -1.64326,-1.92679 -2.87945,-1.35881 z m 334.44606,21.92828 c -0.32309,1.20621 0.29407,2.73576 1.37329,3.42452 2.92136,1.86438 5.8145,3.7727 8.67843,5.72431 7.10786,4.84618 14.03198,9.95652 20.75782,15.32031 2.42096,1.93469 4.8157,3.90189 7.18358,5.90105 1.24282,1.04929 2.58355,0.63588 3.00462,-0.93522 0.36529,-1.36294 -0.20868,-3.21122 -1.28941,-4.11951 -1.91018,-1.60539 -3.83749,-3.19032 -5.78161,-4.75452 -6.82329,-5.44173 -13.84773,-10.62635 -21.05859,-15.54297 -3.16794,-2.15249 -6.37095,-4.25279 -9.60772,-6.30007 -1.37582,-0.87022 -2.8392,-0.2904 -3.26041,1.2821 z m -385.827073,8.0921 c -5.684866,3.98968 -11.249874,8.14779 -16.68761,12.46884 -6.823829,5.4414 -13.441736,11.13614 -19.839844,17.07227 C 12.528466,747.52443 7.2783974,752.72659 2.1971036,758.0908 0.97776031,759.37803 0,761.869 0,763.64207 v 0.59956 c 0,2.07569 1.0871795,2.47398 2.4474032,0.90611 0.2163928,-0.24943 0.433144,-0.49854 0.650253,-0.74735 5.8511713,-6.30603 11.9361538,-12.39102 18.2421878,-18.24219 6.306748,-5.85191 12.830189,-11.46586 19.55664,-16.83008 4.827952,-3.82988 9.757524,-7.5296 14.783396,-11.09522 1.235822,-0.87676 1.926272,-2.76516 1.534399,-4.22886 l -0.01446,-0.054 c -0.361692,-1.35097 -1.588159,-1.80236 -2.732916,-0.99897 z M 489.3539,741.82746 c -0.37776,1.41023 0.21088,3.34489 1.30626,4.33074 6.30603,5.85117 12.39101,11.93616 18.24218,18.24219 1.72445,1.9762 3.09766,1.37596 3.09766,-1.36704 v 0 c 0,-1.43689 -0.79253,-3.45538 -1.77886,-4.50026 -5.21131,-5.52066 -10.60101,-10.87047 -16.16059,-16.0409 -0.57475,-0.52138 -1.15124,-1.04084 -1.72944,-1.55837 -1.21705,-1.08935 -2.55458,-0.6841 -2.97721,0.89364 z"
       inkscape:path-effect="#path-effect9192"
       inkscape:original-d="m 256,649.06055 a 350.00001,350.00001 0 0 0 -26.15625,0.97851 350.00001,350.00001 0 0 0 -26.00781,2.93164 350.00001,350.00001 0 0 0 -25.71875,4.86524 350.00001,350.00001 0 0 0 -25.28125,6.77344 350.00001,350.00001 0 0 0 -24.70508,8.64453 350.00001,350.00001 0 0 0 -11.05274,4.57812 l 1.30469,4.87109 a 345.00001,345.00001 0 0 1 11.57422,-4.79492 345.00001,345.00001 0 0 1 24.35156,-8.51953 345.00001,345.00001 0 0 1 24.92188,-6.67773 345.00001,345.00001 0 0 1 25.34961,-4.79688 345.00001,345.00001 0 0 1 25.63867,-2.88867 345.00001,345.00001 0 0 1 25.78125,-0.96484 345.00001,345.00001 0 0 1 25.78125,0.96484 345.00001,345.00001 0 0 1 25.63867,2.88867 345.00001,345.00001 0 0 1 25.34961,4.79688 345.00001,345.00001 0 0 1 24.92188,6.67773 345.00001,345.00001 0 0 1 2.54101,0.83594 l 1.29492,-4.83789 a 350.00001,350.00001 0 0 0 -2.36328,-0.77734 350.00001,350.00001 0 0 0 -25.28125,-6.77344 350.00001,350.00001 0 0 0 -25.71875,-4.86524 350.00001,350.00001 0 0 0 -26.00781,-2.93164 A 350.00001,350.00001 0 0 0 256,649.06055 Z m 114.79297,19.375 -1.29492,4.83593 a 345.00001,345.00001 0 0 1 12.54492,4.63672 345.00001,345.00001 0 0 1 23.64648,10.31836 345.00001,345.00001 0 0 1 22.81055,12.05469 345.00001,345.00001 0 0 1 2.5293,1.52344 l 1.3457,-5.02539 A 350.00001,350.00001 0 0 0 431,695.95117 350.00001,350.00001 0 0 0 407.85938,683.7207 350.00001,350.00001 0 0 0 383.86914,673.25391 350.00001,350.00001 0 0 0 370.79297,668.43555 Z M 108.08984,681.91016 A 350.00001,350.00001 0 0 0 104.14062,683.7207 350.00001,350.00001 0 0 0 81,695.95117 350.00001,350.00001 0 0 0 65.09375,705.78125 l 1.361328,5.08203 A 345.00001,345.00001 0 0 1 83.5,700.28125 a 345.00001,345.00001 0 0 1 22.81055,-12.05469 345.00001,345.00001 0 0 1 3.09179,-1.41797 z m 332.9668,20.10156 -1.34766,5.03125 a 345.00001,345.00001 0 0 1 10.63672,6.96484 345.00001,345.00001 0 0 1 20.75782,15.32031 345.00001,345.00001 0 0 1 9.42578,7.81055 l 1.42382,-5.3125 a 350.00001,350.00001 0 0 0 -7.73242,-6.40625 350.00001,350.00001 0 0 0 -21.05859,-15.54297 350.00001,350.00001 0 0 0 -12.10547,-7.86523 z M 56.544922,711.50391 A 350.00001,350.00001 0 0 0 37.779297,725.41992 350.00001,350.00001 0 0 0 17.939453,742.49219 350.00001,350.00001 0 0 0 0,760.43164 V 768 A 345.00001,345.00001 0 0 1 3.0976562,764.40039 345.00001,345.00001 0 0 1 21.339844,746.1582 345.00001,345.00001 0 0 1 40.896484,729.32812 345.00001,345.00001 0 0 1 57.923828,716.6543 Z m 433.574218,27.46679 -1.44922,5.41016 a 345.00001,345.00001 0 0 1 1.99024,1.77734 345.00001,345.00001 0 0 1 18.24218,18.24219 A 345.00001,345.00001 0 0 1 512,768 v -7.56836 a 350.00001,350.00001 0 0 0 -17.93945,-17.93945 350.00001,350.00001 0 0 0 -3.94141,-3.52149 z"
       transform="scale(0.26458333)" />
  </g>
  <g
     inkscape:groupmode="layer"
     id="layer4"
     inkscape:label="rocket"
     style="display:inline">
    <path
       id="path11401"
       style="display:inline;fill:none;fill-opacity:1;stroke:#ffffff;stroke-width:1.32292;stroke-miterlimit:4;stroke-dasharray:none;stroke-opacity:1"
       d="m 67.744185,99.797009 c -4.774184,3.300211 -7.867395,10.826911 -7.871354,19.153351 0.0019,3.6024 0.585772,7.14275 1.694987,10.27689 -5.835663,2.47383 -9.627625,8.19616 -9.631455,14.53452 0.0034,1.7234 -0.009,6.5628 0.84491,5.06584 3.353693,-5.87897 8.183787,-10.7266 14.952059,-10.73113 6.766303,5.1e-4 11.602037,4.84102 14.95671,10.71717 0.851997,1.49238 0.83682,-3.33343 0.840259,-5.05188 -0.0038,-6.33836 -3.795792,-12.06069 -9.631455,-14.53452 1.109215,-3.13414 1.693132,-6.67449 1.694987,-10.27689 -2.12e-4,-8.31815 -3.083961,-15.84258 -7.849648,-19.153351 z"
       sodipodi:nodetypes="ccccscscccc" />
    <rect
       style="display:inline;fill:#ffffff;fill-opacity:1;stroke:#ffffff;stroke-width:0.0636411;stroke-opacity:1"
       id="rect12474"
       width="2.5821922"
       height="15.811358"
       x="66.44223"
       y="149.03737"
       ry="1.2910961" />
    <rect
       style="display:inline;fill:#ffffff;fill-opacity:1;stroke:#ffffff;stroke-width:0.0451241;stroke-opacity:1"
       id="rect12760"
       width="2.6007092"
       height="7.8923755"
       x="61.141312"
       y="152.99686"
       ry="1.3003546" />
    <rect
       style="display:inline;fill:#ffffff;fill-opacity:1;stroke:#ffffff;stroke-width:0.0451241;stroke-opacity:1"
       id="rect13403"
       width="2.6007092"
       height="7.8923755"
       x="71.72464"
       y="152.99686"
       ry="1.3003546" />
    <path
       style="display:inline;fill:#ffffff;fill-opacity:1;stroke:#ffffff;stroke-width:1.32292;stroke-miterlimit:4;stroke-dasharray:none"
       id="path997"
       sodipodi:type="arc"
       sodipodi:cx="67.73333"
       sodipodi:cy="126.17403"
       sodipodi:rx="1.3693587"
       sodipodi:ry="1.3693668"
       sodipodi:start="0"
       sodipodi:end="6.2730973"
       sodipodi:open="true"
       sodipodi:arc-type="chord"
       d="m 69.102688,126.17403 a 1.3693587,1.3693668 0 0 1 -1.365905,1.36936 1.3693587,1.3693668 0 0 1 -1.372794,-1.36246 1.3693587,1.3693668 0 0 1 1.35898,-1.37623 1.3693587,1.3693668 0 0 1 1.37965,1.35551 z" />
    <g
       id="g6402"
       transform="translate(13.55502,10.600925)">
      <path
         id="path169"
         style="fill:none;stroke:#ffffff;stroke-width:2.11667;stroke-miterlimit:4;stroke-dasharray:none"
         d="m 30.887609,154.08966 c -1.011997,1.18933 1.835779,-2.29947 3.24207,-2.73457 2.868897,-0.88762 5.914154,0.71852 6.801774,3.58742 v 0 c 0.148979,0.48152 0.230285,0.98141 0.241581,1.48532"
         sodipodi:nodetypes="csssc" />
      <path
         id="path4643"
         style="fill:none;stroke:#ffffff;stroke-width:2.11667;stroke-miterlimit:4;stroke-dasharray:none"
         d="m 26.236546,143.98816 c -1.422443,0.37926 2.824411,-0.82537 4.225142,-0.37245 2.85741,0.92392 4.424818,3.98929 3.500905,6.8467 -0.155132,0.47978 -0.376244,0.93565 -0.656981,1.3545"
         sodipodi:nodetypes="cssc" />
      <rect
         style="fill:#ffffff;fill-opacity:1;stroke:none;stroke-width:1.08959;stroke-miterlimit:4;stroke-dasharray:none"
         id="rect1389"
         width="9.8855162"
         height="2.8666956"
         x="40.196953"
         y="153.53587"
         ry="1.4333478" />
    </g>
    <g
       id="g6410"
       transform="matrix(-1,0,0,1,121.87531,10.749472)">
      <path
         id="path6404"
         style="fill:none;stroke:#ffffff;stroke-width:2.11667;stroke-miterlimit:4;stroke-dasharray:none"
         d="m 30.887609,154.08966 c -1.011997,1.18933 1.835779,-2.29947 3.24207,-2.73457 2.868897,-0.88762 5.914154,0.71852 6.801774,3.58742 v 0 c 0.148979,0.48152 0.230285,0.98141 0.241581,1.48532"
         sodipodi:nodetypes="csssc" />
      <path
         id="path6406"
         style="fill:none;stroke:#ffffff;stroke-width:2.11667;stroke-miterlimit:4;stroke-dasharray:none"
         d="m 26.236546,143.98816 c -1.422443,0.37926 2.824411,-0.82537 4.225142,-0.37245 2.85741,0.92392 4.424818,3.98929 3.500905,6.8467 -0.155132,0.47978 -0.376244,0.93565 -0.656981,1.3545"
         sodipodi:nodetypes="cssc" />
      <rect
         style="fill:#ffffff;fill-opacity:1;stroke:none;stroke-width:1.08959;stroke-miterlimit:4;stroke-dasharray:none"
         id="rect6408"
         width="9.8855162"
         height="2.8666956"
         x="40.196953"
         y="153.53587"
         ry="1.4333478" />
    </g>
    <path
       id="rect6455"
       style="fill:#ffffff;fill-opacity:1;stroke:#ffffff;stroke-width:0.107204;stroke-miterlimit:4;stroke-dasharray:none;stroke-dashoffset:9.12019;stroke-opacity:1"
       d="m 45.574978,101.92451 c -0.116308,0 -0.232731,0.0444 -0.321851,0.13351 -0.178242,0.17824 -0.178242,0.46546 0,0.6437 l 0.757343,0.75695 -0.757343,0.75734 c -0.178242,0.17824 -0.178242,0.46506 0,0.6433 0.178241,0.17825 0.465063,0.17825 0.643304,0 l 0.757343,-0.75734 0.757344,0.75734 c 0.178241,0.17825 0.465063,0.17825 0.643304,0 0.178241,-0.17824 0.178241,-0.46506 0,-0.6433 l -0.757343,-0.75734 0.757343,-0.75695 c 0.178241,-0.17824 0.178241,-0.46546 0,-0.6437 -0.178241,-0.17824 -0.465063,-0.17824 -0.643304,0 l -0.757344,0.75735 -0.757343,-0.75735 c -0.08912,-0.0891 -0.205146,-0.13351 -0.321453,-0.13351 z" />
    <path
       id="path7228"
       style="fill:#ffffff;fill-opacity:1;stroke:#ffffff;stroke-width:0.107204;stroke-miterlimit:4;stroke-dasharray:none;stroke-dashoffset:9.12019;stroke-opacity:1"
       d="m 24.583475,111.32213 c -0.116308,0 -0.232731,0.0444 -0.321851,0.1335 -0.178242,0.17824 -0.178242,0.46546 0,0.6437 l 0.757343,0.75695 -0.757343,0.75734 c -0.178242,0.17825 -0.178242,0.46507 0,0.64331 0.178241,0.17824 0.465063,0.17824 0.643304,0 l 0.757343,-0.75734 0.757344,0.75734 c 0.178241,0.17824 0.465063,0.17824 0.643304,0 0.178241,-0.17824 0.178241,-0.46506 0,-0.64331 l -0.757343,-0.75734 0.757343,-0.75695 c 0.178241,-0.17824 0.178241,-0.46546 0,-0.6437 -0.178241,-0.17824 -0.465063,-0.17824 -0.643304,0 l -0.757344,0.75735 -0.757343,-0.75735 c -0.08912,-0.0891 -0.205146,-0.1335 -0.321453,-0.1335 z" />
    <path
       id="path7230"
       style="fill:#ffffff;fill-opacity:1;stroke:#ffffff;stroke-width:0.107204;stroke-miterlimit:4;stroke-dasharray:none;stroke-dashoffset:9.12019;stroke-opacity:1"
       d="m 40.185073,121.57792 c -0.116308,0 -0.232731,0.0444 -0.321851,0.1335 -0.178242,0.17824 -0.178242,0.46546 0,0.6437 l 0.757343,0.75695 -0.757343,0.75734 c -0.178242,0.17825 -0.178242,0.46507 0,0.64331 0.178241,0.17824 0.465063,0.17824 0.643304,0 l 0.757343,-0.75734 0.757344,0.75734 c 0.178241,0.17824 0.465063,0.17824 0.643304,0 0.178241,-0.17824 0.178241,-0.46506 0,-0.64331 l -0.757343,-0.75734 0.757343,-0.75695 c 0.178241,-0.17824 0.178241,-0.46546 0,-0.6437 -0.178241,-0.17824 -0.465063,-0.17824 -0.643304,0 l -0.757344,0.75735 -0.757343,-0.75735 c -0.08912,-0.0891 -0.205146,-0.1335 -0.321453,-0.1335 z" />
    <path
       id="path7238"
       style="fill:#ffffff;fill-opacity:1;stroke:#ffffff;stroke-width:0.107204;stroke-miterlimit:4;stroke-dasharray:none;stroke-dashoffset:9.12019;stroke-opacity:1"
       d="m 29.36053,140.92941 c -0.116304,0 -0.232726,0.0444 -0.321847,0.1335 -0.178242,0.17825 -0.178242,0.46547 0,0.64371 l 0.757344,0.75695 -0.757344,0.75734 c -0.178242,0.17825 -0.178242,0.46506 0,0.64331 0.178237,0.17823 0.465065,0.17823 0.643307,0 l 0.757341,-0.75735 0.757342,0.75735 c 0.178242,0.17823 0.465062,0.17823 0.643304,0 0.178242,-0.17825 0.178242,-0.46506 0,-0.64331 l -0.757341,-0.75734 0.757341,-0.75695 c 0.178242,-0.17824 0.178242,-0.46546 0,-0.64371 -0.178242,-0.17823 -0.465062,-0.17823 -0.643304,0 l -0.757342,0.75736 -0.757341,-0.75736 c -0.08912,-0.0892 -0.205146,-0.1335 -0.32146,-0.1335 z" />
    <path
       id="path7644"
       style="fill:#ffffff;fill-opacity:1;stroke:#ffffff;stroke-width:0.107204;stroke-miterlimit:4;stroke-dasharray:none;stroke-dashoffset:9.12019;stroke-opacity:1"
       d="m 88.849173,103.05144 c 0.116308,0 0.232731,0.0444 0.321851,0.13351 0.178242,0.17824 0.178242,0.46546 0,0.6437 l -0.757343,0.75695 0.757343,0.75734 c 0.178242,0.17824 0.178242,0.46506 0,0.6433 -0.178241,0.17825 -0.465063,0.17825 -0.643304,0 l -0.757343,-0.75734 -0.757344,0.75734 c -0.178241,0.17825 -0.465063,0.17825 -0.643304,0 -0.178241,-0.17824 -0.178241,-0.46506 0,-0.6433 l 0.757343,-0.75734 -0.757343,-0.75695 c -0.178241,-0.17824 -0.178241,-0.46546 0,-0.6437 0.178241,-0.17824 0.465063,-0.17824 0.643304,0 l 0.757344,0.75735 0.757343,-0.75735 c 0.08912,-0.0891 0.205146,-0.13351 0.321453,-0.13351 z" />
    <path
       id="path7646"
       style="fill:#ffffff;fill-opacity:1;stroke:#ffffff;stroke-width:0.107204;stroke-miterlimit:4;stroke-dasharray:none;stroke-dashoffset:9.12019;stroke-opacity:1"
       d="m 109.84068,112.44906 c 0.1163,0 0.23273,0.0444 0.32185,0.1335 0.17824,0.17824 0.17824,0.46546 0,0.6437 l -0.75735,0.75695 0.75735,0.75734 c 0.17824,0.17825 0.17824,0.46507 0,0.64331 -0.17824,0.17824 -0.46507,0.17824 -0.64331,0 l -0.75734,-0.75734 -0.75734,0.75734 c -0.17825,0.17824 -0.46507,0.17824 -0.64331,0 -0.17824,-0.17824 -0.17824,-0.46506 0,-0.64331 l 0.75734,-0.75734 -0.75734,-0.75695 c -0.17824,-0.17824 -0.17824,-0.46546 0,-0.6437 0.17824,-0.17824 0.46506,-0.17824 0.64331,0 l 0.75734,0.75735 0.75734,-0.75735 c 0.0891,-0.0891 0.20515,-0.1335 0.32146,-0.1335 z" />
    <path
       id="path7648"
       style="fill:#ffffff;fill-opacity:1;stroke:#ffffff;stroke-width:0.107204;stroke-miterlimit:4;stroke-dasharray:none;stroke-dashoffset:9.12019;stroke-opacity:1"
       d="m 94.239078,122.70485 c 0.116308,0 0.232731,0.0444 0.321851,0.1335 0.178244,0.17824 0.178244,0.46546 0,0.6437 l -0.757343,0.75695 0.757343,0.75734 c 0.178244,0.17825 0.178244,0.46507 0,0.64331 -0.178241,0.17824 -0.465063,0.17824 -0.643304,0 l -0.757343,-0.75734 -0.757344,0.75734 c -0.178241,0.17824 -0.465063,0.17824 -0.643304,0 -0.178241,-0.17824 -0.178241,-0.46506 0,-0.64331 l 0.757343,-0.75734 -0.757343,-0.75695 c -0.178241,-0.17824 -0.178241,-0.46546 0,-0.6437 0.178241,-0.17824 0.465063,-0.17824 0.643304,0 l 0.757344,0.75735 0.757343,-0.75735 c 0.08912,-0.0891 0.205146,-0.1335 0.321453,-0.1335 z" />
    <path
       id="path7650"
       style="fill:#ffffff;fill-opacity:1;stroke:#ffffff;stroke-width:0.107204;stroke-miterlimit:4;stroke-dasharray:none;stroke-dashoffset:9.12019;stroke-opacity:1"
       d="m 105.06362,142.05634 c 0.1163,0 0.23273,0.0444 0.32185,0.1335 0.17824,0.17825 0.17824,0.46547 0,0.64371 l -0.75735,0.75695 0.75735,0.75734 c 0.17824,0.17825 0.17824,0.46506 0,0.64331 -0.17824,0.17823 -0.46507,0.17823 -0.64331,0 l -0.75734,-0.75735 -0.75734,0.75735 c -0.17824,0.17823 -0.46506,0.17823 -0.64331,0 -0.17824,-0.17825 -0.17824,-0.46506 0,-0.64331 l 0.75734,-0.75734 -0.75734,-0.75695 c -0.17824,-0.17824 -0.17824,-0.46546 0,-0.64371 0.17825,-0.17823 0.46507,-0.17823 0.64331,0 l 0.75734,0.75736 0.75734,-0.75736 c 0.0891,-0.0892 0.20515,-0.1335 0.32146,-0.1335 z" />
    <path
       id="path7652"
       style="fill:#ffffff;fill-opacity:1;stroke:#ffffff;stroke-width:0.107204;stroke-miterlimit:4;stroke-dasharray:none;stroke-dashoffset:9.12019;stroke-opacity:1"
       d="m 50.866645,80.757842 c -0.116308,0 -0.232731,0.0444 -0.321851,0.13351 -0.178242,0.17824 -0.178242,0.46546 0,0.6437 l 0.757343,0.75695 -0.757343,0.75734 c -0.178242,0.17824 -0.178242,0.46506 0,0.6433 0.178241,0.17825 0.465063,0.17825 0.643304,0 l 0.757343,-0.75734 0.757344,0.75734 c 0.178241,0.17825 0.465063,0.17825 0.643304,0 0.178241,-0.17824 0.178241,-0.46506 0,-0.6433 l -0.757343,-0.75734 0.757343,-0.75695 c 0.178241,-0.17824 0.178241,-0.46546 0,-0.6437 -0.178241,-0.17824 -0.465063,-0.17824 -0.643304,0 l -0.757344,0.75735 -0.757343,-0.75735 c -0.08912,-0.0891 -0.205146,-0.13351 -0.321453,-0.13351 z" />
    <path
       id="path7654"
       style="fill:#ffffff;fill-opacity:1;stroke:#ffffff;stroke-width:0.107204;stroke-miterlimit:4;stroke-dasharray:none;stroke-dashoffset:9.12019;stroke-opacity:1"
       d="m 72.033313,75.466175 c -0.116308,0 -0.232731,0.0444 -0.321851,0.13351 -0.178242,0.17824 -0.178242,0.46546 0,0.6437 l 0.757343,0.75695 -0.757343,0.75734 c -0.178242,0.17824 -0.178242,0.46506 0,0.6433 0.178241,0.17825 0.465063,0.17825 0.643304,0 l 0.757343,-0.75734 0.757344,0.75734 c 0.178241,0.17825 0.465063,0.17825 0.643304,0 0.178241,-0.17824 0.178241,-0.46506 0,-0.6433 l -0.757343,-0.75734 0.757343,-0.75695 c 0.178241,-0.17824 0.178241,-0.46546 0,-0.6437 -0.178241,-0.17824 -0.465063,-0.17824 -0.643304,0 l -0.757344,0.75735 -0.757343,-0.75735 c -0.08912,-0.0891 -0.205146,-0.13351 -0.321453,-0.13351 z" />
    <path
       id="path7656"
       style="fill:#ffffff;fill-opacity:1;stroke:#ffffff;stroke-width:0.107204;stroke-miterlimit:4;stroke-dasharray:none;stroke-dashoffset:9.12019;stroke-opacity:1"
       d="m 87.908314,86.049509 c -0.116308,0 -0.232731,0.0444 -0.321851,0.13351 -0.178242,0.17824 -0.178242,0.46546 0,0.6437 l 0.757343,0.75695 -0.757343,0.75734 c -0.178242,0.17824 -0.178242,0.46506 0,0.6433 0.178241,0.17825 0.465063,0.17825 0.643304,0 l 0.757343,-0.75734 0.757344,0.75734 c 0.178241,0.17825 0.465063,0.17825 0.643304,0 0.178241,-0.17824 0.178241,-0.46506 0,-0.6433 l -0.757343,-0.75734 0.757343,-0.75695 c 0.178241,-0.17824 0.178241,-0.46546 0,-0.6437 -0.178241,-0.17824 -0.465063,-0.17824 -0.643304,0 l -0.757344,0.75735 -0.757343,-0.75735 c -0.08912,-0.0891 -0.205146,-0.13351 -0.321453,-0.13351 z" />
    <g
       id="g1673"
       transform="translate(0.5288529,2.8611448)">
      <path
         id="path207"
         style="fill:none;stroke:#ffffff;stroke-width:1.07925;stroke-miterlimit:4;stroke-dasharray:none;stroke-dashoffset:34.47;stroke-opacity:1"
         d="m 67.733332,7.8838763 c -0.865908,0.00149 -1.718434,0.2137582 -2.48395,0.6184579 C 66.650543,8.0082306 68.090046,7.7752525 69.397307,8.1498933 68.870133,7.9767063 68.3098,7.8839331 67.733332,7.8838763 Z m -2.48395,0.6184579 C 63.861721,8.1736233 62.571955,8.0027391 61.472449,8.0019189 c -4.114782,6.05e-5 -4.647421,2.3355961 -1.189699,5.2166291 0.678754,0.565346 1.484216,1.126906 2.384878,1.662711 -0.176998,-0.536519 -0.267644,-1.09775 -0.268546,-1.662711 0.0017,-1.979089 1.098895,-3.7945941 2.8503,-4.7162138 z m -2.581754,6.3789248 c 0.718326,2.189513 2.761368,3.670277 5.065704,3.67154 0.865871,-0.0014 1.718395,-0.213483 2.483948,-0.618036 -2.560926,-0.605247 -5.287219,-1.707912 -7.549652,-3.053504 z m 7.549652,3.053504 c 1.38766,0.32871 2.677427,0.499595 3.776935,0.500415 4.114782,-6e-5 4.647419,-2.335596 1.189697,-5.21663 -0.677913,-0.564866 -1.48236,-1.125986 -2.381925,-1.661446 0.175862,0.536279 0.265509,1.097068 0.265595,1.661446 -0.0017,1.979091 -1.098897,3.794595 -2.850302,4.716215 z m 2.584707,-6.377661 C 72.463715,10.524868 71.831018,9.6503611 71.01533,9.0137107 c 0.677159,0.5662016 1.283979,1.3905503 1.786657,2.5433913 z M 71.01533,9.0137107 C 70.510632,8.5917086 69.966919,8.3134426 69.398151,8.150315 c 0.587821,0.1932256 1.134463,0.4866316 1.617179,0.8633957 z" />
      <ellipse
         style="fill:none;stroke:#ffffff;stroke-width:0.79375;stroke-miterlimit:4;stroke-dasharray:none;stroke-dashoffset:34.47;stroke-opacity:1"
         id="path1526"
         cx="78.032349"
         cy="6.518012"
         rx="1.2659714"
         ry="1.2659713" />
      <ellipse
         style="fill:none;stroke:#ffffff;stroke-width:0.79375;stroke-miterlimit:4;stroke-dasharray:none;stroke-dashoffset:34.47;stroke-opacity:1"
         id="ellipse1665"
         cx="55.986019"
         cy="19.030188"
         rx="0.87538165"
         ry="0.87538159" />
      <ellipse
         style="fill:none;stroke:#ffffff;stroke-width:0.529167;stroke-miterlimit:4;stroke-dasharray:none;stroke-dashoffset:34.47;stroke-opacity:1"
         id="ellipse1667"
         cx="62.300549"
         cy="3.1986918"
         rx="0.50358671"
         ry="0.50358665" />
    </g>
  </g>
</svg>
